<?xml version="1.0" encoding="utf-8"?>
<!-- Generator: Adobe Illustrator 16.0.0, SVG Export Plug-In . SVG Version: 6.00 Build 0)  -->
<!DOCTYPE svg PUBLIC "-//W3C//DTD SVG 1.1//EN" "http://www.w3.org/Graphics/SVG/1.1/DTD/svg11.dtd">
<svg version="1.1" id="Layer_1" xmlns="http://www.w3.org/2000/svg" xmlns:xlink="http://www.w3.org/1999/xlink" x="0px" y="0px"
	 width="395px" height="70px" viewBox="0 0 395 70" enable-background="new 0 0 395 70" xml:space="preserve">
<g>
	<g>
		<path fill="#87C700" d="M39.57,10.354c16.445,0,29.974,9.137,31.622,25.592h3.833C74.326,17.108,58.666,2.05,39.448,2.05
			C20.229,2.05,4.569,17.108,3.87,35.946h4.075C9.593,19.491,23.122,10.354,39.57,10.354z"/>
		<path fill="#87C700" d="M56.423,56.979c-0.046,0.168-0.083,0.305-0.095,0.342c-0.133,0.383-0.284,0.763-0.464,1.129
			c-0.345,0.697-0.777,1.453-1.416,1.963c-0.909,0.726-2.144,0.915-3.309,0.975c-1.659,0.085-3.457,0.124-4.983-0.578
			c-0.391-0.181-0.758-0.418-1.083-0.688c-2.513-2.083-2.558-5.52-2.505-8.393c0.034-1.983-0.004-3.979-0.008-5.963
			c-0.004-2.667,0.004-5.332-0.006-8c-0.01-2.39,0.01-4.779-0.004-7.17c-0.006-1.16,0.058-2.34-0.002-3.499
			c0-0.005-0.004-0.063-0.006-0.063c-0.002,0-6.061,0-6.061,0v26.864c0,0.131,0.004,0.263,0.009,0.394h0.01
			c0.066,2.142,0.368,3.263,1.097,5.169c0.82,2.148,2.188,4.479,4.106,5.958c2.482,1.917,5.947,2.428,9.097,2.237
			c0.971-0.06,1.959-0.192,2.907-0.4c2.157-0.472,4.236-1.369,5.833-2.807c1.148-1.036,1.99-2.312,2.426-3.737
			c0.146-0.485,0.267-0.978,0.387-1.469c0.153-0.642,0.294-1.286,0.467-1.923c0.03-0.111,0.06-0.226,0.091-0.338L56.423,56.979z"/>
	</g>
	<g>
		<path fill="#87C700" d="M125.506,61.526c0,2.359-1.444,3.539-4.329,3.539c-2.889,0-4.332-1.18-4.332-3.539V46.323
			c0-0.194-0.024-0.368-0.073-0.517c-0.048-0.147-0.243-0.222-0.582-0.222H91.956c-1.795,0-2.704-1.241-2.729-3.727
			c-0.023-2.483,0.886-3.727,2.729-3.727h28.966c1.747,0,2.946,0.456,3.603,1.366c0.657,0.909,0.982,1.931,0.982,3.063
			L125.506,61.526L125.506,61.526z M138.241,18.651c0,4.527-1.759,8.426-5.275,11.696c-3.519,3.272-7.8,4.907-12.846,4.907
			c-5.144,0-9.474-1.623-12.99-4.87c-3.519-3.247-5.277-7.157-5.277-11.733c0-4.574,1.759-8.485,5.277-11.731
			c3.517-3.248,7.847-4.871,12.99-4.871c5.046,0,9.327,1.636,12.846,4.907C136.483,10.229,138.241,14.128,138.241,18.651z
			 M129.582,18.651c0-2.558-0.937-4.722-2.803-6.492c-1.869-1.771-4.088-2.656-6.659-2.656c-2.621,0-4.852,0.885-6.695,2.656
			c-1.844,1.771-2.767,3.936-2.767,6.492c0,2.56,0.923,4.724,2.767,6.494c1.844,1.771,4.074,2.656,6.695,2.656
			c2.571,0,4.79-0.885,6.659-2.656C128.646,23.376,129.582,21.211,129.582,18.651z"/>
		<path fill="#87C700" d="M186.275,35.994c0.775,2.263-0.193,3.862-2.911,4.797c-2.719,0.935-4.465,0.271-5.241-1.993l-9.389-28.854
			l-13.973,42.58c-0.776,2.263-2.522,2.926-5.239,1.991c-2.718-0.934-3.688-2.532-2.911-4.796l14.264-43.537
			c0.775-2.262,2.522-2.902,5.24-1.919c1.213,0.443,2.086,1.011,2.619,1.698c0.534-0.688,1.407-1.255,2.622-1.698
			c2.716-0.983,4.461-0.343,5.238,1.919L186.275,35.994z M175.866,66.765c-1.747,0-2.948-0.455-3.602-1.365
			c-0.656-0.912-0.983-1.932-0.983-3.063V44.849c0-2.361,1.443-3.542,4.33-3.542c2.886,0,4.329,1.181,4.329,3.542v13.725
			c0,0.197,0.025,0.371,0.074,0.518c0.048,0.148,0.241,0.223,0.582,0.223h32.75c1.795,0,2.704,1.242,2.729,3.727
			c0.022,2.482-0.887,3.726-2.729,3.726L175.866,66.765L175.866,66.765z M201.194,44.11c0,2.361-1.443,3.543-4.33,3.543
			c-2.889,0-4.332-1.182-4.332-3.543V5.888c0-2.363,1.443-3.543,4.332-3.543c2.886,0,4.33,1.18,4.33,3.543V44.11z M214.804,22.785
			c0,1.575-0.546,2.915-1.639,4.021c-1.092,1.106-2.416,1.661-3.967,1.661c-1.554,0-2.875-0.554-3.965-1.661
			c-1.095-1.106-1.64-2.446-1.64-4.021c0-1.574,0.545-2.915,1.64-4.021c1.09-1.108,2.411-1.661,3.965-1.661
			c1.551,0,2.875,0.553,3.967,1.661C214.258,19.87,214.804,21.211,214.804,22.785z"/>
		<path fill="#87C700" d="M257.959,21.31c0,5.067-1.771,9.422-5.312,13.062c-1.507,1.524-3.156,2.756-4.949,3.688
			c0.436,0.049,0.848,0.174,1.235,0.37c0.679,0.345,1.263,0.958,1.747,1.845l8.15,14.906l8.152-14.906
			c0.482-0.886,1.064-1.5,1.745-1.845c0.681-0.344,1.455-0.517,2.328-0.517c0.922,0,1.722,0.172,2.402,0.517
			c0.679,0.345,1.262,0.958,1.747,1.845l11.718,21.475c1.405,2.556,0.823,4.354-1.747,5.387c-2.573,1.033-4.366,0.639-5.387-1.182
			l-8.66-15.938l-8.732,15.938c-0.341,0.639-0.826,1.083-1.457,1.328c-0.631,0.246-1.283,0.344-1.964,0.295
			c-0.776,0.049-1.493-0.049-2.147-0.295s-1.178-0.689-1.563-1.328l-8.661-15.938l-8.732,15.938c-1.02,1.82-2.814,2.215-5.385,1.182
			c-2.574-1.033-3.156-2.831-1.748-5.387l11.719-21.475c0.146-0.246,0.291-0.492,0.437-0.737c-0.971,0.147-1.989,0.222-3.057,0.222
			c-5.144,0-9.474-1.795-12.99-5.387c-3.519-3.592-5.276-7.944-5.276-13.061c0-5.117,1.758-9.471,5.276-13.063
			c3.519-3.59,7.847-5.387,12.99-5.387c5.046,0,9.327,1.795,12.846,5.387C256.2,11.84,257.959,16.192,257.959,21.31z M249.298,21.31
			c0-3.05-0.934-5.645-2.801-7.785s-4.088-3.209-6.659-3.209c-2.621,0-4.854,1.069-6.695,3.209
			c-1.846,2.141-2.767,4.735-2.767,7.785c0,3,0.921,5.584,2.767,7.748c1.843,2.166,4.074,3.247,6.695,3.247
			c2.571,0,4.792-1.081,6.659-3.247C248.364,26.894,249.298,24.31,249.298,21.31z M278.628,33.042c0,2.361-1.445,3.542-4.329,3.542
			c-2.89,0-4.332-1.181-4.332-3.542V5.813c0-2.361,1.442-3.543,4.332-3.543c2.884,0,4.329,1.182,4.329,3.543V33.042z"/>
		<path fill="#87C700" d="M327.46,29.353c0,7.133-1.637,13.282-4.912,18.448c-3.273,5.165-7.727,7.748-13.354,7.748
			c-5.58,0-10.045-2.558-13.393-7.675c-3.35-5.116-5.021-11.29-5.021-18.521c0-7.23,1.674-13.404,5.021-18.521
			c3.348-5.115,7.813-7.675,13.393-7.675c5.676,0,10.139,2.572,13.391,7.712C325.835,16.009,327.46,22.171,327.46,29.353z
			 M318.946,29.353c0-5.263-0.838-9.703-2.511-13.32c-1.674-3.615-4.088-5.422-7.241-5.422c-3.057,0-5.445,1.808-7.17,5.422
			c-1.722,3.617-2.582,8.058-2.582,13.32c0,5.266,0.86,9.704,2.582,13.319c1.725,3.616,4.113,5.423,7.17,5.423
			c3.153,0,5.567-1.808,7.241-5.423C318.108,39.056,318.946,34.616,318.946,29.353z M338.815,28.688
			c0,1.575-0.547,2.914-1.638,4.021c-1.094,1.107-2.415,1.661-3.968,1.661c-1.555,0-2.875-0.554-3.967-1.661
			s-1.637-2.446-1.637-4.021c0-1.574,0.545-2.916,1.637-4.021c1.092-1.107,2.412-1.661,3.967-1.661c1.553,0,2.874,0.554,3.968,1.661
			C338.269,25.774,338.815,27.114,338.815,28.688z M347.766,61.526c0,2.359-1.442,3.539-4.33,3.539c-2.887,0-4.329-1.18-4.329-3.539
			V5.888c0-2.363,1.442-3.543,4.329-3.543c2.888,0,4.33,1.18,4.33,3.543V61.526z"/>
		<path fill="#87C700" d="M380.223,4.56c1.165,0,2.438,0.271,3.821,0.811c1.383,0.543,2.703,1.229,3.968,2.066h-0.073
			c1.262,0.936,2.23,2.152,2.911,3.653c0.679,1.501,1.021,3.235,1.021,5.202v3.542c0,4.575-2.186,8.29-6.551,11.142
			c-4.367,2.805-6.551,5.658-6.551,8.561v5.682c0,2.115-1.455,3.223-4.365,3.32c-2.815,0-4.223-1.106-4.223-3.32v-5.535
			c0-2.804,0.569-5.188,1.71-7.158c1.14-1.965,2.729-3.468,4.769-4.5c2.134-0.983,3.771-2.226,4.91-3.727
			c1.141-1.5,1.711-3.184,1.711-5.054v-2.288c0-1.229-0.375-2.362-1.127-3.395c-0.754-1.033-2.026-1.551-3.821-1.551h-4.729
			c-1.796,0-3.057,0.518-3.783,1.551c-0.728,1.032-1.094,2.166-1.094,3.395v2.951c0,2.313-1.455,3.469-4.367,3.469
			c-2.813,0-4.221-1.156-4.221-3.469v-3.616c0-3.984,1.286-6.937,3.857-8.854h-0.071c1.259-0.836,2.569-1.522,3.929-2.066
			c1.358-0.54,2.668-0.811,3.93-0.811H380.223z M380.37,57.172c0,1.724-0.57,3.161-1.711,4.317
			c-1.142,1.156-2.535,1.732-4.187,1.732c-1.647,0-3.045-0.578-4.185-1.732c-1.141-1.156-1.711-2.594-1.711-4.317
			c0-1.673,0.57-3.074,1.711-4.207c1.14-1.13,2.535-1.696,4.185-1.696s3.045,0.566,4.187,1.696
			C379.8,54.098,380.37,55.5,380.37,57.172z"/>
	</g>
</g>
</svg>
